{
    "asset" : {
        "generator" : "Khronos glTF Blender I/O v1.7.33",
        "version" : "2.0"
    },
    "scene" : 0,
    "scenes" : [
        {
            "name" : "Scene",
            "nodes" : [
                0,
                1,
                2,
                3
            ]
        }
    ],
    "nodes" : [
        {
            "mesh" : 0,
            "name" : "Cartridge_case_Circle.001",
            "rotation" : [
                0.7071068286895752,
                0,
                0,
                0.7071068286895752
            ]
        },
        {
            "mesh" : 1,
            "name" : "Bullet_Circle.004",
            "rotation" : [
                0.7071068286895752,
                0,
                0,
                0.7071067094802856
            ]
        },
        {
            "mesh" : 2,
            "name" : "Cartridge_case.001_Circle.001",
            "rotation" : [
                0.7071068286895752,
                0,
                0,
                0.7071067094802856
            ]
        },
        {
            "mesh" : 3,
            "name" : "Bullet_Circle.001",
            "rotation" : [
                0.7071068286895752,
                0,
                0,
                0.7071067094802856
            ],
            "translation" : [
                1.0099999904632568,
                0,
                0
            ]
        }
    ],
    "materials" : [
        {
            "doubleSided" : true,
            "name" : "Ammo_9x18pm",
            "pbrMetallicRoughness" : {
                "baseColorFactor" : [
                    0.800000011920929,
                    0.800000011920929,
                    0.800000011920929,
                    1
                ],
                "metallicFactor" : 0,
                "roughnessFactor" : 0.5
            }
        },
        {
            "doubleSided" : true,
            "name" : "Ammo_9x18pm.001",
            "pbrMetallicRoughness" : {
                "baseColorFactor" : [
                    0.800000011920929,
                    0.800000011920929,
                    0.800000011920929,
                    1
                ],
                "metallicFactor" : 0,
                "roughnessFactor" : 0.5
            }
        }
    ],
    "meshes" : [
        {
            "name" : "Cartridge_case_Circle.001",
            "primitives" : [
                {
                    "attributes" : {
                        "POSITION" : 0,
                        "NORMAL" : 1,
                        "TEXCOORD_0" : 2
                    },
                    "indices" : 3,
                    "material" : 0
                }
            ]
        },
        {
            "name" : "Bullet_Circle.004",
            "primitives" : [
                {
                    "attributes" : {
                        "POSITION" : 4,
                        "NORMAL" : 5,
                        "TEXCOORD_0" : 6
                    },
                    "indices" : 7,
                    "material" : 0
                }
            ]
        },
        {
            "name" : "Cartridge_case.001_Circle.001",
            "primitives" : [
                {
                    "attributes" : {
                        "POSITION" : 8,
                        "NORMAL" : 9,
                        "TEXCOORD_0" : 10
                    },
                    "indices" : 11,
                    "material" : 0
                }
            ]
        },
        {
            "name" : "Bullet_Circle.001",
            "primitives" : [
                {
                    "attributes" : {
                        "POSITION" : 12,
                        "NORMAL" : 13,
                        "TEXCOORD_0" : 14
                    },
                    "indices" : 7,
                    "material" : 1
                }
            ]
        }
    ],
    "accessors" : [
        {
            "bufferView" : 0,
            "componentType" : 5126,
            "count" : 687,
            "max" : [
                -0.3834640085697174,
                0.09613599628210068,
                -0.01793700084090233
            ],
            "min" : [
                -0.5625519752502441,
                -0.08426699787378311,
                -0.3404879868030548
            ],
            "type" : "VEC3"
        },
        {
            "bufferView" : 1,
            "componentType" : 5126,
            "count" : 687,
            "type" : "VEC3"
        },
        {
            "bufferView" : 2,
            "componentType" : 5126,
            "count" : 687,
            "type" : "VEC2"
        },
        {
            "bufferView" : 3,
            "componentType" : 5123,
            "count" : 2508,
            "type" : "SCALAR"
        },
        {
            "bufferView" : 4,
            "componentType" : 5126,
            "count" : 235,
            "max" : [
                -0.38855600357055664,
                0.09100700169801712,
                -0.32545799016952515
            ],
            "min" : [
                -0.5574589967727661,
                -0.07913699746131897,
                -0.4615890085697174
            ],
            "type" : "VEC3"
        },
        {
            "bufferView" : 5,
            "componentType" : 5126,
            "count" : 235,
            "type" : "VEC3"
        },
        {
            "bufferView" : 6,
            "componentType" : 5126,
            "count" : 235,
            "type" : "VEC2"
        },
        {
            "bufferView" : 7,
            "componentType" : 5123,
            "count" : 1326,
            "type" : "SCALAR"
        },
        {
            "bufferView" : 8,
            "componentType" : 5126,
            "count" : 687,
            "max" : [
                0.6285319924354553,
                0.09613599628210068,
                -0.01793700084090233
            ],
            "min" : [
                0.4494450092315674,
                -0.08426699787378311,
                -0.3404879868030548
            ],
            "type" : "VEC3"
        },
        {
            "bufferView" : 9,
            "componentType" : 5126,
            "count" : 687,
            "type" : "VEC3"
        },
        {
            "bufferView" : 10,
            "componentType" : 5126,
            "count" : 687,
            "type" : "VEC2"
        },
        {
            "bufferView" : 11,
            "componentType" : 5123,
            "count" : 2508,
            "type" : "SCALAR"
        },
        {
            "bufferView" : 12,
            "componentType" : 5126,
            "count" : 235,
            "max" : [
                -0.38855600357055664,
                0.09100700169801712,
                -0.32545799016952515
            ],
            "min" : [
                -0.5574589967727661,
                -0.07913699746131897,
                -0.4615890085697174
            ],
            "type" : "VEC3"
        },
        {
            "bufferView" : 13,
            "componentType" : 5126,
            "count" : 235,
            "type" : "VEC3"
        },
        {
            "bufferView" : 14,
            "componentType" : 5126,
            "count" : 235,
            "type" : "VEC2"
        }
    ],
    "bufferViews" : [
        {
            "buffer" : 0,
            "byteLength" : 8244,
            "byteOffset" : 0
        },
        {
            "buffer" : 0,
            "byteLength" : 8244,
            "byteOffset" : 8244
        },
        {
            "buffer" : 0,
            "byteLength" : 5496,
            "byteOffset" : 16488
        },
        {
            "buffer" : 0,
            "byteLength" : 5016,
            "byteOffset" : 21984
        },
        {
            "buffer" : 0,
            "byteLength" : 2820,
            "byteOffset" : 27000
        },
        {
            "buffer" : 0,
            "byteLength" : 2820,
            "byteOffset" : 29820
        },
        {
            "buffer" : 0,
            "byteLength" : 1880,
            "byteOffset" : 32640
        },
        {
            "buffer" : 0,
            "byteLength" : 2652,
            "byteOffset" : 34520
        },
        {
            "buffer" : 0,
            "byteLength" : 8244,
            "byteOffset" : 37172
        },
        {
            "buffer" : 0,
            "byteLength" : 8244,
            "byteOffset" : 45416
        },
        {
            "buffer" : 0,
            "byteLength" : 5496,
            "byteOffset" : 53660
        },
        {
            "buffer" : 0,
            "byteLength" : 5016,
            "byteOffset" : 59156
        },
        {
            "buffer" : 0,
            "byteLength" : 2820,
            "byteOffset" : 64172
        },
        {
            "buffer" : 0,
            "byteLength" : 2820,
            "byteOffset" : 66992
        },
        {
            "buffer" : 0,
            "byteLength" : 1880,
            "byteOffset" : 69812
        }
    ],
    "buffers" : [
        {
            "byteLength" : 71692,
            "uri" : "data:application/octet-stream;base64,"
        }
    ]
}
